<svg preserveAspectRatio="none" width="100%" height="100%" overflow="visible" style="display: block;" viewBox="0 0 24 24" fill="none" xmlns="http://www.w3.org/2000/svg">
<g id="fluent:chevron-up-12-filled">
<path id="Vector" d="M4.44 15.06C4.72125 15.3409 5.1025 15.4987 5.5 15.4987C5.8975 15.4987 6.27875 15.3409 6.56 15.06L12 9.62L17.44 15.06C17.7244 15.325 18.1004 15.4692 18.489 15.4623C18.8776 15.4555 19.2484 15.2981 19.5232 15.0232C19.7981 14.7484 19.9555 14.3776 19.9624 13.989C19.9692 13.6004 19.825 13.2243 19.56 12.94L13.06 6.44C12.7787 6.1591 12.3975 6.00132 12 6.00132C11.6025 6.00132 11.2213 6.1591 10.94 6.44L4.44 12.94C4.1591 13.2213 4.00132 13.6025 4.00132 14C4.00132 14.3975 4.1591 14.7787 4.44 15.06Z" fill="var(--fill-0, white)"/>
</g>
</svg>
