<svg preserveAspectRatio="none" width="100%" height="100%" overflow="visible" style="display: block;" viewBox="0 0 61.6865 61.6865" fill="none" xmlns="http://www.w3.org/2000/svg">
<g id="fa6-solid:gear" clip-path="url(#clip0_0_9)">
<path id="Vector" d="M59.7468 20.0722C60.1323 21.1204 59.807 22.2891 58.9757 23.0361L53.7588 27.783C53.8914 28.783 53.9637 29.8071 53.9637 30.8433C53.9637 31.8794 53.8914 32.9035 53.7588 33.9035L58.9757 38.6505C59.807 39.3974 60.1323 40.5661 59.7468 41.6143C59.2167 43.048 58.5781 44.4215 57.8432 45.7468L57.2769 46.7227C56.4817 48.048 55.5902 49.301 54.6143 50.4817C53.9034 51.3492 52.7227 51.6384 51.6625 51.301L44.9516 49.1685C43.3372 50.4095 41.5541 51.4456 39.6505 52.2287L38.1444 59.1082C37.9035 60.2046 37.0601 61.0721 35.9517 61.2528C34.289 61.5299 32.5782 61.6745 30.8312 61.6745C29.0842 61.6745 27.3734 61.5299 25.7107 61.2528C24.6023 61.0721 23.7589 60.2046 23.518 59.1082L22.012 52.2287C20.1084 51.4456 18.3252 50.4095 16.7108 49.1685L10.012 51.3131C8.95177 51.6504 7.77106 51.3492 7.06022 50.4938C6.08432 49.3131 5.19275 48.0601 4.39757 46.7348L3.83131 45.7589C3.09637 44.4336 2.45782 43.0601 1.9277 41.6264C1.54216 40.5782 1.86746 39.4095 2.69879 38.6625L7.91563 33.9155C7.7831 32.9035 7.71082 31.8794 7.71082 30.8433C7.71082 29.8071 7.7831 28.783 7.91563 27.783L2.69879 23.0361C1.86746 22.2891 1.54216 21.1204 1.9277 20.0722C2.45782 18.6385 3.09637 17.265 3.83131 15.9397L4.39757 14.9638C5.19275 13.6385 6.08432 12.3855 7.06022 11.2048C7.77106 10.3373 8.95177 10.0482 10.012 10.3855L16.7228 12.518C18.3373 11.2771 20.1204 10.2409 22.024 9.4578L23.53 2.5783C23.771 1.48192 24.6144 0.614456 25.7228 0.433733C27.3854 0.144578 29.0963 0 30.8433 0C32.5902 0 34.3011 0.144578 35.9637 0.421685C37.0722 0.602407 37.9155 1.46987 38.1565 2.56626L39.6625 9.44575C41.5661 10.2289 43.3492 11.265 44.9637 12.506L51.6745 10.3735C52.7347 10.0361 53.9155 10.3373 54.6263 11.1927C55.6022 12.3734 56.4938 13.6265 57.289 14.9518L57.8552 15.9277C58.5902 17.2529 59.2287 18.6264 59.7588 20.0602L59.7468 20.0722ZM30.8433 40.4818C33.3996 40.4818 35.8512 39.4663 37.6587 37.6587C39.4663 35.8512 40.4818 33.3996 40.4818 30.8433C40.4818 28.287 39.4663 25.8354 37.6587 24.0278C35.8512 22.2202 33.3996 21.2047 30.8433 21.2047C28.287 21.2047 25.8354 22.2202 24.0278 24.0278C22.2202 25.8354 21.2047 28.287 21.2047 30.8433C21.2047 33.3996 22.2202 35.8512 24.0278 37.6587C25.8354 39.4663 28.287 40.4818 30.8433 40.4818Z" fill="var(--fill-0, white)"/>
</g>
<defs>
<clipPath id="clip0_0_9">
<rect width="61.6865" height="61.6865" fill="white"/>
</clipPath>
</defs>
</svg>
