<svg preserveAspectRatio="none" width="100%" height="100%" overflow="visible" style="display: block;" viewBox="0 0 20 20" fill="none" xmlns="http://www.w3.org/2000/svg">
<g id="spark">
<path id="Star 16" d="M7.95511 5.3353C8.10842 5.02731 8.54783 5.02731 8.70114 5.3353L10.343 8.63373C10.3834 8.7149 10.4492 8.78067 10.5303 8.82107L13.8288 10.4629C14.1368 10.6162 14.1368 11.0556 13.8288 11.2089L10.5303 12.8508C10.4492 12.8912 10.3834 12.957 10.343 13.0381L8.70114 16.3366C8.54783 16.6446 8.10842 16.6446 7.95511 16.3366L6.31326 13.0381C6.27286 12.957 6.20709 12.8912 6.12592 12.8508L2.82749 11.2089C2.5195 11.0556 2.5195 10.6162 2.82749 10.4629L6.12592 8.82107C6.20708 8.78067 6.27286 8.7149 6.31326 8.63373L7.95511 5.3353Z" stroke="var(--stroke-0, white)" stroke-width="1.66667" stroke-linecap="round" stroke-linejoin="round"/>
<path id="Star 5" d="M14.1667 3.33594C14.4743 4.35324 14.8312 4.69827 15.8333 5.0026C14.8365 5.3172 14.47 5.68057 14.1667 6.66927C13.8721 5.65622 13.4989 5.29422 12.5 5.0026C13.4917 4.71075 13.8612 4.35187 14.1667 3.33594Z" stroke="var(--stroke-0, white)" stroke-width="1.66667" stroke-linejoin="round"/>
<path id="Star 6" d="M15.8307 14.1641C16.1384 15.1814 16.4953 15.5264 17.4974 15.8307C16.5006 16.1453 16.1341 16.5087 15.8307 17.4974C15.5362 16.4843 15.1629 16.1223 14.1641 15.8307C15.1557 15.5389 15.5252 15.18 15.8307 14.1641Z" stroke="var(--stroke-0, white)" stroke-width="1.66667" stroke-linejoin="round"/>
</g>
</svg>
