<svg preserveAspectRatio="none" width="100%" height="100%" overflow="visible" style="display: block;" viewBox="0 0 22.0042 22.0047" fill="none" xmlns="http://www.w3.org/2000/svg">
<path id="Vector" d="M13.7005 5.30369C13.5172 5.49062 13.4146 5.74194 13.4146 6.00369C13.4146 6.26544 13.5172 6.51676 13.7005 6.70369L15.3005 8.30369C15.4874 8.48692 15.7387 8.58955 16.0005 8.58955C16.2622 8.58955 16.5135 8.48692 16.7005 8.30369L19.8065 5.19869C20.1265 4.87669 20.6695 4.97869 20.7895 5.41669C21.0916 6.51557 21.0745 7.67776 20.7402 8.76728C20.406 9.85681 19.7683 10.8286 18.9019 11.5689C18.0354 12.3093 16.9761 12.7875 15.8477 12.9478C14.7194 13.108 13.5688 12.9436 12.5305 12.4737L4.62047 20.3837C4.22264 20.7814 3.68313 21.0048 3.12061 21.0047C2.5581 21.0046 2.01866 20.781 1.62097 20.3832C1.22327 19.9854 0.999906 19.4459 1 18.8833C1.00009 18.3208 1.22364 17.7814 1.62147 17.3837L9.53147 9.47369C9.06161 8.4354 8.89717 7.28477 9.0574 6.15644C9.21763 5.02811 9.69589 3.96874 10.4362 3.10231C11.1766 2.23587 12.1484 1.5982 13.2379 1.26392C14.3274 0.929633 15.4896 0.912558 16.5885 1.21469C17.0265 1.33469 17.1285 1.87669 16.8075 2.19869L13.7005 5.30369Z" stroke="var(--stroke-0, white)" stroke-width="2" stroke-linecap="round" stroke-linejoin="round"/>
</svg>
