<svg preserveAspectRatio="none" width="100%" height="100%" overflow="visible" style="display: block;" viewBox="0 0 20 20" fill="none" xmlns="http://www.w3.org/2000/svg">
<path id="Vector" d="M1 17C1 17.5304 1.21071 18.0391 1.58579 18.4142C1.96086 18.7893 2.46957 19 3 19H17C17.5304 19 18.0391 18.7893 18.4142 18.4142C18.7893 18.0391 19 17.5304 19 17V6.5C19.0001 6.4103 18.9761 6.32223 18.9304 6.24502C18.8848 6.1678 18.8192 6.10429 18.7405 6.06114C18.6619 6.01798 18.5731 5.99678 18.4835 5.99975C18.3938 6.00271 18.3066 6.02974 18.231 6.078L13.769 8.922C13.6934 8.97026 13.6062 8.99729 13.5165 9.00025C13.4269 9.00322 13.3381 8.98202 13.2595 8.93886C13.1808 8.89571 13.1152 8.8322 13.0696 8.75498C13.0239 8.67777 12.9999 8.5897 13 8.5V6.5C13.0001 6.4103 12.9761 6.32223 12.9304 6.24502C12.8848 6.1678 12.8192 6.10429 12.7405 6.06114C12.6619 6.01798 12.5731 5.99678 12.4835 5.99975C12.3938 6.00271 12.3066 6.02974 12.231 6.078L7.77 8.922C7.69437 8.97052 7.60707 8.99777 7.51727 9.00087C7.42747 9.00397 7.33849 8.98282 7.2597 8.93964C7.1809 8.89645 7.1152 8.83283 7.0695 8.75547C7.0238 8.6781 6.99979 8.58985 7 8.5V3C7 2.46957 6.78929 1.96086 6.41421 1.58579C6.03914 1.21071 5.53043 1 5 1H3C2.46957 1 1.96086 1.21071 1.58579 1.58579C1.21071 1.96086 1 2.46957 1 3V17Z" stroke="var(--stroke-0, white)" stroke-width="2" stroke-linecap="round" stroke-linejoin="round"/>
</svg>
