<svg preserveAspectRatio="none" width="100%" height="100%" overflow="visible" style="display: block;" viewBox="0 0 11.9968 11.1095" fill="none" xmlns="http://www.w3.org/2000/svg">
<path id="Vector" d="M9.4748 1.00017L10.9898 9.52617C11.0068 9.62656 10.9927 9.72975 10.9494 9.82192C10.9062 9.91409 10.8358 9.99086 10.7477 10.042C10.6597 10.0931 10.5581 10.1161 10.4566 10.1079C10.3551 10.0997 10.2585 10.0607 10.1798 9.99617L6.5998 7.30917C6.42697 7.18005 6.21703 7.11029 6.0013 7.11029C5.78557 7.11029 5.57562 7.18005 5.4028 7.30917L1.8168 9.99517C1.73812 10.0596 1.64166 10.0985 1.54029 10.1067C1.43893 10.1149 1.33747 10.092 1.24946 10.041C1.16145 9.99008 1.09107 9.9135 1.04772 9.8215C1.00436 9.72951 0.990086 9.62648 1.0068 9.52617L2.5208 1.00017" stroke="var(--stroke-0, white)" stroke-width="2" stroke-linecap="round" stroke-linejoin="round"/>
</svg>
